<svg xmlns="http://www.w3.org/2000/svg" width="52" height="56" fill="none"><path fill="#F0EBFF" fill-rule="evenodd" d="M41.7 22.12C42.49 15.56 43.2 9.35 49 4c-26.5 0-34.15 8.13-38 14-8.54 13.04-.91 25.67.71 28.09A808.64 808.64 0 0 0 7 55.56l.88.44a825.82 825.82 0 0 1 4.63-9.32c2.6.87 14.45 4.19 21.99-4.68 5.66-6.66 6.45-13.44 7.2-19.88Z" clip-rule="evenodd"/><path fill="#7859CF" fill-rule="evenodd" d="M8.23 41.05C12.2 33.26 16.7 25.1 21.27 20l.73.66c-4.57 5.08-9.07 13.3-13.03 21.12A26.2 26.2 0 0 0 16.09 43c4.38.12 9.66-.96 13.65-5.65 5.46-6.42 6.22-12.94 6.98-19.4l.02-.13c.68-5.81 1.38-11.64 5.87-16.8-11.79.23-19.48 2.16-24.67 4.68a23.8 23.8 0 0 0-10.1 8.85A22.6 22.6 0 0 0 4.9 33.43a28.93 28.93 0 0 0 3.33 7.63Zm-.52 1.04C6.1 39.67-1.54 27.04 7 14 10.78 8.24 18.23.3 43.55 0H45a22 22 0 0 0-1.02 1c-4.87 5.12-5.55 10.96-6.27 17.12-.76 6.44-1.55 13.22-7.21 19.88-7.54 8.87-19.4 5.55-21.99 4.68L5.86 48c-.68 1.4-1.34 2.73-1.98 4L3 51.56l1.97-3.96 2.74-5.51Z" clip-rule="evenodd"/></svg>